<?xml version="1.0" encoding="UTF-8"?>
<svg width="14px" height="15px" viewBox="0 0 14 15" version="1.1" xmlns="http://www.w3.org/2000/svg" xmlns:xlink="http://www.w3.org/1999/xlink">
    <title>36B3975D-56EB-42CB-8E2E-4F6C07731A59</title>
    <g id="MileStone-2" stroke="none" stroke-width="1" fill="none" fill-rule="evenodd">
        <g id="PowerApp-(M2)---Relocate-Dialog---Added-1st-" transform="translate(-201.000000, -644.000000)" fill="#FFFFFF">
            <g id="Dialog" transform="translate(125.000000, 100.000000)">
                <g id="Relocation-list" transform="translate(45.000000, 479.000000)">
                    <g id="table" transform="translate(0.000000, 29.000000)">
                        <g id="Header" transform="translate(0.000000, 29.000000)">
                            <g id="arrows-bidirectional" transform="translate(38.014653, 14.500000) rotate(-90.000000) translate(-38.014653, -14.500000) translate(30.542409, 8.419673)">
                                <path d="M10.8820842,7.69447441 L9.87913676,6.67797364 C9.78262299,6.58015563 9.7831511,6.4227787 9.88031917,6.32561062 L11.3516373,4.85429248 L11.3516373,4.85429248 L6.67919914,4.85429248 C6.54112795,4.85429248 6.42919914,4.74236366 6.42919914,4.60429248 L6.42919914,3.16459565 C6.42919914,3.02652446 6.54112795,2.91459565 6.67919914,2.91459565 L11.3516373,2.91459565 L11.3516373,2.91459565 L9.88031917,1.4432775 C9.7831511,1.34610943 9.78262299,1.18873249 9.87913676,1.09091448 L10.8820842,0.0744137153 C10.9790578,-0.0238703863 11.1373455,-0.0249327197 11.2356296,0.0720409272 C11.2360277,0.0724337322 11.2364245,0.072827872 11.23682,0.0732233401 L14.871264,3.70766737 C14.9688951,3.80529844 14.9688951,3.96358968 14.871264,4.06122076 L11.23682,7.69566478 C11.1391889,7.79329586 10.9808977,7.79329586 10.8832666,7.69566478 C10.8828711,7.69526931 10.882477,7.69487252 10.8820842,7.69447441 Z M3.70766733,12.0874312 L0.0732233047,8.45298716 C-0.0244077682,8.35535609 -0.0244077682,8.19706485 0.0732233047,8.09943377 L3.70766733,4.46498975 C3.8052984,4.36735867 3.96358965,4.36735867 4.06122072,4.46498975 C4.06161619,4.46538521 4.06201033,4.46578201 4.06240313,4.46618012 L5.06535056,5.48268089 C5.16186433,5.5804989 5.16133622,5.73787583 5.06416815,5.83504391 L3.59285,7.30636205 L3.59285,7.30636205 L8.26528818,7.30636205 C8.40335937,7.30636205 8.51528818,7.41829087 8.51528818,7.55636205 L8.51528818,8.99605888 C8.51528818,9.13413007 8.40335937,9.24605888 8.26528818,9.24605888 L3.59285,9.24605888 L3.59285,9.24605888 L5.06416815,10.717377 C5.16133622,10.8145451 5.16186433,10.971922 5.06535056,11.06974 L4.06240313,12.0862408 C3.96542949,12.1845249 3.80714181,12.1855872 3.70885771,12.0886136 C3.70845959,12.0882208 3.7080628,12.0878267 3.70766733,12.0874312 Z" id="Fill-1"></path>
                            </g>
                        </g>
                    </g>
                </g>
            </g>
        </g>
    </g>
</svg>