<svg xmlns="http://www.w3.org/2000/svg" width="100%" height="100%" viewBox="0 0 32 32">
    <path d="M16.001 0c-8.838 0-16.001 7.163-16.001 16.001s7.163 16.001 16.001 16.001 15.999-7.163 15.999-16.001-7.163-16.001-15.999-16.001zM14.418 5.225h3.106c0.231 0 0.581 0 0.581 0.385 0 0.175 0 0.088-0.029 0.571l-0.638 11.349c-0.058 0.552-0.175 0.579-0.61 0.579h-1.654c-0.435 0-0.552-0.040-0.608-0.579l-0.64-11.349c-0.029-0.485-0.029-0.398-0.029-0.573 0-0.383 0.29-0.383 0.521-0.383zM16.016 26.829c-1.392 0-2.469-1.136-2.469-2.442 0-1.394 1.077-2.475 2.469-2.475 1.363 0 2.438 1.102 2.438 2.475 0 1.306-1.102 2.442-2.438 2.442z"/>
</svg>
