<?xml version="1.0" encoding="UTF-8"?>
<svg height="100%" width="100%" viewBox="0 0 16 16" version="1.1" xmlns="http://www.w3.org/2000/svg">
    <path d="M2.43143782,4.75969948 C2.46363011,4.77981966 2.49081749,4.80700704 2.51093767,4.83919932 L4.55987576,8.11750026 C4.63305334,8.2345844 4.59746005,8.38882199 4.48037591,8.46199958 C4.44064301,8.48683264 4.39473111,8.5 4.34787618,8.5 L3.22109705,8.50078926 C3.42676704,11.2218795 5.30454599,13.0129153 7.59061717,13.0129153 C8.35456888,13.0129153 8.99504132,12.8744039 9.5120345,12.5973813 C9.74568662,12.472171 10.0364453,12.55108 10.1747495,12.7772278 L10.6849414,13.6114668 C10.8290513,13.8470448 10.7548652,14.1548338 10.5192701,14.2989157 C10.5150036,14.3015249 10.5106982,14.30407 10.5063554,14.30655 C9.69682362,14.76885 8.72491087,15 7.59061717,15 C4.22677376,15 1.4749457,12.5438188 1.26496934,8.50113379 L0.25,8.5 C0.111928813,8.5 2.11111463e-14,8.38807119 2.10942375e-14,8.25 C2.10884994e-14,8.20314507 0.0131673612,8.15723317 0.038000424,8.11750026 L2.08693851,4.83919932 C2.1601161,4.72211519 2.31435369,4.6865219 2.43143782,4.75969948 Z M8.46681212,1 C11.8309314,1 14.5829349,3.4565841 14.7925116,7.49986083 L15.6468477,7.5 C15.7849189,7.5 15.8968477,7.61192881 15.8968477,7.75 C15.8968477,7.79685493 15.8836804,7.84276683 15.8588473,7.88249974 L13.8099092,11.1608007 C13.7367316,11.2778848 13.582494,11.3134781 13.4654099,11.2403005 C13.4332176,11.2201803 13.4060302,11.192993 13.3859101,11.1608007 L11.336972,7.88249974 C11.2637944,7.7654156 11.2993877,7.61117801 11.4164718,7.53800042 C11.4562047,7.51316736 11.5021166,7.5 11.5489716,7.5 L12.8363322,7.49921074 C12.6306622,4.77812055 10.7528833,2.98708474 8.46681212,2.98708474 C7.70286042,2.98708474 7.06238798,3.12559607 6.54539479,3.40261875 C6.31174268,3.52782896 6.02098402,3.44892 5.88267978,3.22277216 L5.37248791,2.38853315 C5.22837797,2.1529552 5.30256412,1.84516618 5.53815924,1.70108431 C5.5424257,1.69847509 5.54673106,1.69593002 5.55107387,1.69344997 C6.36060568,1.23114999 7.33251843,1 8.46681212,1 Z M9.05555688,7.42908862 C8.94621572,7.15845974 8.75393163,6.96372375 8.47869885,6.84487479 C8.20346607,6.72602582 7.93220716,6.72059815 7.66491399,6.8285916 C7.39762082,6.93658505 7.20626387,7.12892167 7.0908374,7.40560721 C6.97541093,7.68229275 6.97236832,7.95594586 7.08170949,8.22657473 C7.19315336,8.502408 7.38467808,8.69896427 7.65628937,8.81624943 C7.92790067,8.93353459 8.19991895,8.93714199 8.47235238,8.82707174 C8.7447858,8.71700149 8.93795347,8.52544677 9.05186117,8.25240183 C9.16576887,7.97935688 9.16700076,7.70492189 9.05555688,7.42908862 Z M10.6202005,5.84764141 L11.02941,6.5696391 C11.0821564,6.66271139 11.0698404,6.77903118 10.9987699,6.85899136 C10.812082,7.06903084 10.5368783,7.30754033 10.1731588,7.57451984 C10.1904048,7.74001604 10.1905357,7.90907915 10.1735513,8.08171424 C10.4805057,8.30659482 10.7476213,8.52670816 10.9748979,8.74205426 C11.0565504,8.81960801 11.0763824,8.94217461 11.0232332,9.04145633 L10.6174999,9.79935976 C10.5594422,9.90775717 10.4311818,9.95785817 10.3150308,9.91748949 C9.73785609,9.71689044 9.41176225,9.59768686 9.33674931,9.55987875 C9.24660921,9.62595119 9.00743747,9.76674096 8.90623845,9.81330135 C8.90087647,9.89867786 8.83889175,10.248011 8.72028427,10.8613008 C8.69693371,10.9810007 8.59070194,11.0665147 8.46878164,11.0635607 L7.63003329,11.0432388 C7.51531411,11.0406344 7.41719781,10.9601701 7.39201339,10.8482192 C7.32281897,10.5406334 7.26939022,10.1957054 7.23172714,9.81343537 C7.07650627,9.74216982 6.93287325,9.65758007 6.80082378,9.55966357 C6.39620017,9.74549584 6.05865779,9.86866975 5.78819665,9.92918529 C5.68081402,9.95325992 5.57033583,9.90425151 5.51607289,9.80851151 L5.10686336,9.08651383 C5.05411695,8.99344153 5.06643296,8.87712174 5.1375034,8.79716157 C5.3241913,8.58712209 5.59939501,8.34861259 5.96311451,8.08163308 C5.94512253,7.90356504 5.9449917,7.73450193 5.96272201,7.57443868 C5.64881296,7.344463 5.37648998,7.10321105 5.14575306,6.85068285 C5.07219208,6.77016076 5.05931258,6.65124435 5.11393584,6.55684454 L5.52087535,5.85357247 C5.58076078,5.75036993 5.70520369,5.70376057 5.81810412,5.74236757 C6.39708902,5.94035501 6.72422899,6.05832388 6.79952404,6.09627418 C7.00925001,5.95980685 7.12883588,5.88941196 7.2300349,5.84285157 C7.2572982,5.56259296 7.30918082,5.22633495 7.38568276,4.83407755 C7.40840989,4.71796936 7.50938046,4.63363661 7.62768122,4.63203726 L8.49852665,4.62026398 C8.616883,4.61854895 8.72015628,4.70013669 8.74599114,4.81565169 C8.81434614,5.12128632 8.86719783,5.46364161 8.9045462,5.84271756 C9.04945414,5.9070429 9.19308716,5.99163265 9.33544956,6.09648935 C9.74007318,5.91065708 10.0776156,5.78748318 10.3480767,5.72696764 C10.4554593,5.702893 10.5659375,5.75190141 10.6202005,5.84764141 Z"></path>
</svg>
