<svg xmlns="http://www.w3.org/2000/svg" viewBox="0 0 32.006001 32" height="100%" width="100%">
    <path d="m 15.56,20.44 c -2.454,0 -4.442,-1.984 -4.442,-4.442 0,-2.456 1.99,-4.442 4.442,-4.442 2.456,0 4.446,1.986 4.446,4.442 0,2.458 -1.99,4.442 -4.446,4.442 z M 30.222,12.888 H 25.764 C 25.498,12.032 25.126,11.226 24.672,10.474 L 27.63,7.508 c 0.698,-0.69 0.698,-1.822 0,-2.52 L 26.376,3.736 c -0.696,-0.692 -1.82,-0.69 -2.514,0 L 20.854,6.742 C 20.038,6.284 19.158,5.924 18.222,5.686 V 1.778 C 18.222,0.798 17.43,0 16.444,0 H 14.666 C 13.69,0 12.894,0.798 12.894,1.778 v 3.908 c -1.022,0.256 -1.98,0.666 -2.86,1.2 L 7.516,4.37 C 6.822,3.68 5.694,3.676 5,4.37 L 3.74,5.626 C 3.046,6.318 3.056,7.45 3.744,8.144 l 2.562,2.562 c -0.54,0.946 -0.948,1.976 -1.18,3.068 H 1.782 C 0.796,13.774 0,14.57 0,15.554 v 1.78 c 0,0.978 0.796,1.774 1.782,1.774 h 3.574 c 0.322,1.072 0.812,2.062 1.438,2.96 L 4.376,24.486 C 3.68,25.18 3.68,26.31 4.37,27.01 l 1.254,1.254 c 0.698,0.682 1.826,0.682 2.518,-0.004 l 2.702,-2.706 c 0.912,0.454 1.896,0.778 2.936,0.948 v 3.718 c 0,0.982 0.796,1.776 1.778,1.78 h 1.778 c 0.98,-0.004 1.778,-0.798 1.778,-1.78 v -4.178 c 0.896,-0.318 1.746,-0.74 2.514,-1.282 l 2.862,2.866 c 0.696,0.694 1.818,0.694 2.516,0 L 28.26,26.37 c 0.698,-0.692 0.698,-1.822 -0.004,-2.522 L 25.12,20.704 c 0.386,-0.778 0.684,-1.61 0.87,-2.49 h 4.234 c 0.986,0 1.78,-0.792 1.782,-1.782 V 14.66 C 32,13.686 31.208,12.888 30.222,12.888 Z"/>
</svg>
