<svg xmlns="http://www.w3.org/2000/svg" width="100%" height="100%" viewBox="0 0 7 11">
    <path d="M0.5 9L6.5 9C6.8 9 7 9.2 7 9.5L7 10.5C7 10.8 6.8 11 6.5 11L0.5 11C0.2 11 0 10.8 0 10.5L0 9.5C0 9.2 0.2 9 0.5 9ZM0.5 6L6.5 6C6.8 6 7 6.2 7 6.5L7 7.5C7 7.8 6.8 8 6.5 8L0.5 8C0.2 8 0 7.8 0 7.5L0 6.5C0 6.2 0.2 6 0.5 6ZM0.5 3L6.5 3C6.8 3 7 3.2 7 3.5L7 4.5C7 4.8 6.8 5 6.5 5L0.5 5C0.2 5 0 4.8 0 4.5L0 3.5C0 3.2 0.2 3 0.5 3ZM0.5 0L6.5 0C6.8 0 7 0.2 7 0.5L7 1.5C7 1.8 6.8 2 6.5 2L0.5 2C0.2 2 0 1.8 0 1.5L0 0.5C0 0.2 0.2 0 0.5 0Z"/>
</svg>
