<svg xmlns="http://www.w3.org/2000/svg" viewBox="0 0 16.27 16.27">
   <path d="M8.14,12.28a4.15,4.15,0,1,1,4.14-4.14A4.15,4.15,0,0,1,8.14,12.28ZM8.14,6a2.15,2.15,0,1,0,2.14,2.15A2.15,2.15,0,0,0,8.14,6Z" />
   <path d="M6.6,16.27H1.65A1.64,1.64,0,0,1,0,14.63v-5a1,1,0,0,1,2,0v4.6H6.6a1,1,0,0,1,0,2Z" />
   <path d="M14.63,16.27h-5a1,1,0,1,1,0-2h4.6V9.67a1,1,0,1,1,2,0v5A1.63,1.63,0,0,1,14.63,16.27Z" />
   <path d="M15.27,7.6a1,1,0,0,1-1-1V2H9.67a1,1,0,0,1,0-2h5a1.64,1.64,0,0,1,1.64,1.65V6.6A1,1,0,0,1,15.27,7.6ZM14.63,2h0Z" />
   <path d="M1,7.6a1,1,0,0,1-1-1V1.65A1.65,1.65,0,0,1,1.65,0H6.6a1,1,0,0,1,0,2H2V6.6A1,1,0,0,1,1,7.6Z" />
</svg>
