<svg xmlns="http://www.w3.org/2000/svg" width="100%" height="100%" viewBox="0 0 47.031502 47.022499">
    <path d="m 40.1405,6.882 c -9.182,-9.176 -24.072,-9.176 -33.254,0 -9.182,9.179 -9.182,24.072 0,33.254 9.182,9.185 24.078,9.179 33.254,0 9.188,-9.173 9.188,-24.075 0,-33.254 z M 23.1365,4.065 c 2.483,0 4.502,2.016 4.502,4.502 0,2.508 -2.019,4.545 -4.502,4.545 -2.51,0 -4.548,-2.038 -4.548,-4.545 0,-2.526 1.994,-4.502 4.548,-4.502 z m 7.239,33.113 c 0,0.948 -0.466,1.409 -1.409,1.409 h -11.615 c -0.948,0 -1.409,-0.46 -1.409,-1.409 v -2.961 c 0,-0.945 0.46,-1.402 1.409,-1.402 h 2.145 V 20.316 h -2.191 c -0.942,0 -1.402,-0.454 -1.402,-1.405 v -2.958 c 0,-0.951 0.46,-1.409 1.402,-1.409 h 8.111 c 0.948,0 1.409,0.457 1.409,1.409 v 16.863 h 2.145 c 0.942,0 1.409,0.458 1.409,1.403 v 2.961 z"/>
</svg>
