<svg xmlns="http://www.w3.org/2000/svg" width="100%" height="100%">
   <defs>
      <clipPath id="a">
         <rect width="100%" height="100%"/>
      </clipPath>
   </defs>
   <g clip-path="url(#a)">
      <clipPath id="b">
         <rect width="100%" height="100%" fill="#FFF"/>
      </clipPath>
      <g clip-path="url(#b)">
         <clipPath id="c">
            <rect width="100%" height="100%" fill="#FFF"/>
         </clipPath>
         <g fill-rule="evenodd" fill="#FFFFFE" clip-path="url(#c)">
            <path d="M31.409 20.833c-2.155 0-3.96-1.032-4.717-2.712a.99.99 0 0 1 .466-1.269.924.924 0 0 1 1.222.472c.35.797 1.34 1.622 3.029 1.622 2.125 0 3.26-1.386 3.26-2.713 0-1.74-1.048-2.183-3.464-2.802-2.038-.53-4.6-1.179-4.6-4.217 0-1.09.466-2.152 1.251-2.948.641-.619 1.747-1.357 3.553-1.357 2.009 0 3.668.944 4.396 2.507a.909.909 0 0 1-.437 1.238c-.466.236-1.019.03-1.252-.442-.32-.678-1.193-1.445-2.707-1.445-2.155 0-2.941 1.504-2.941 2.447 0 1.446.932 1.829 3.203 2.389 2.038.531 4.861 1.239 4.861 4.63 0 1.15-.494 2.3-1.338 3.155-.671.649-1.864 1.445-3.785 1.445zM52.049 12.871c0-3.48-2.417-6.104-5.59-6.104-3.203 0-5.59 2.624-5.59 6.104 0 3.451 2.387 6.075 5.59 6.075 3.173 0 5.59-2.624 5.59-6.075zm1.834 0c0 4.541-3.202 7.962-7.424 7.962-2.271 0-4.251-.973-5.59-2.594v9.76c0 .53-.408.943-.932.943a.944.944 0 0 1-.932-.943V5.824c0-.501.437-.915.932-.915a.92.92 0 0 1 .932.915v1.651c1.339-1.592 3.319-2.566 5.59-2.566 4.222 0 7.424 3.421 7.424 7.962zM57.521 20.833a.944.944 0 0 1-.932-.944V5.824c0-.501.437-.915.932-.915a.92.92 0 0 1 .931.915v14.065a.925.925 0 0 1-.931.944zm0-19.432c.582 0 1.019.471 1.019 1.002a.995.995 0 0 1-1.019 1.003 1.013 1.013 0 0 1-1.019-1.003c0-.531.466-1.002 1.019-1.002zM68.438 5.824c0 .53-.408.943-.932.943-2.562 0-4.512 2.123-4.512 4.924v8.198a.926.926 0 0 1-.932.944c-.495 0-.904-.412-.904-.944V5.824c0-.501.409-.915.904-.915a.92.92 0 0 1 .932.915v.972c1.135-1.179 2.707-1.887 4.512-1.887a.92.92 0 0 1 .932.915zM70.912 11.928h10.627c-.349-3.067-2.388-5.161-5.241-5.161-2.853 0-5.007 2.123-5.386 5.161zm5.532 8.905c-4.251 0-7.424-3.421-7.424-7.962 0-2.152.698-4.128 1.98-5.602 1.338-1.534 3.231-2.36 5.298-2.36 4.164 0 7.163 3.333 7.163 7.962a.944.944 0 0 1-.932.943H70.912c.408 2.979 2.65 5.132 5.532 5.132 1.95 0 3.668-.943 4.658-2.654a.932.932 0 0 1 1.281-.295.96.96 0 0 1 .32 1.297c-1.368 2.242-3.638 3.539-6.259 3.539zM98.773 11.691v8.198c0 .532-.407.944-.903.944a.925.925 0 0 1-.931-.944v-8.198c0-2.83-1.834-4.924-4.367-4.924-2.62 0-4.658 2.182-4.658 4.924v8.198a.926.926 0 0 1-.933.944c-.494 0-.902-.412-.902-.944V5.824c0-.501.408-.915.902-.915a.92.92 0 0 1 .933.915v1.061a6.397 6.397 0 0 1 4.658-1.976c1.776 0 3.407.708 4.542 2.035 1.077 1.239 1.659 2.92 1.659 4.747zM109.514 18.18c.407.323.436.913.116 1.326a3.745 3.745 0 0 1-2.853 1.327c-2.096 0-3.785-1.71-3.785-3.804V6.767h-.845c-.494 0-.902-.413-.902-.943 0-.501.408-.915.902-.915h.845V1.902c0-.531.437-.944.931-.944.525 0 .933.413.933.944v3.007h3.29a.92.92 0 0 1 .931.915c0 .53-.407.943-.931.943h-3.29v10.262c0 1.061.873 1.917 1.921 1.917a1.8 1.8 0 0 0 1.427-.679c.349-.383.931-.442 1.31-.087zM11.876 22.24c-4.766 0-8.76-3.37-9.807-7.878h2.494l-3.894-6.2-.077.122a12.147 12.147 0 0 0-.581 3.461H.008c-.003.095-.008.189-.008.283a12.23 12.23 0 0 0 .053 1.111l.005.075c.591 6.078 5.665 10.842 11.818 10.842 4.395 0 8.237-2.433 10.291-6.037l-1.113-1.772c-1.588 3.531-5.103 5.993-9.178 5.993zM23.751 12.028c0-.351-.018-.698-.047-1.041l-.004-.053C23.152 4.813 18.06 0 11.876 0 7.421 0 3.533 2.499 1.501 6.184l1.124 1.79c1.552-3.62 5.113-6.158 9.251-6.158 4.839 0 8.891 3.473 9.859 8.087h-2.587l3.894 6.2.013-.02c.361-1.019.584-2.102.66-3.227h.005c.019-.274.031-.55.031-.828zM112.482 5.248a.104.104 0 0 1-.106.104h-.688v2.057a.104.104 0 0 1-.102.107.105.105 0 0 1-.107-.107V5.352h-.688a.105.105 0 0 1-.107-.104c0-.06.047-.108.107-.108h1.585c.06 0 .106.048.106.108zM114.709 7.516a.105.105 0 0 1-.106-.107V5.597l-.768 1.156a.107.107 0 0 1-.176 0l-.765-1.156v1.812a.104.104 0 0 1-.106.107.104.104 0 0 1-.106-.107V5.248c0-.047.03-.091.076-.104a.102.102 0 0 1 .117.044l.874 1.312.871-1.312a.105.105 0 0 1 .119-.044.112.112 0 0 1 .077.104v2.161a.108.108 0 0 1-.107.107z"/>
         </g>
      </g>
   </g>
</svg>
