<?xml version="1.0" encoding="UTF-8"?>
<svg width="245px" height="65px" viewBox="0 0 245 65" version="1.1" xmlns="http://www.w3.org/2000/svg" xmlns:xlink="http://www.w3.org/1999/xlink">
    <!-- Generator: Sketch 51.2 (57519) - http://www.bohemiancoding.com/sketch -->
    <title>Spirent-Logo-All-White-OL</title>
    <desc>Created with Sketch.</desc>
    <defs></defs>
    <g id="Spirent-Logo-All-White-OL" stroke="none" stroke-width="1" fill="none" fill-rule="evenodd">
        <path d="M66.913,44.553 C62.323,44.553 58.478,42.382 56.865,38.847 C56.431,37.854 56.865,36.676 57.857,36.179 C58.85,35.745 60.028,36.179 60.462,37.172 C61.207,38.847 63.315,40.583 66.913,40.583 C71.441,40.583 73.86,37.668 73.86,34.877 C73.86,31.217 71.627,30.286 66.479,28.984 C62.137,27.867 56.679,26.503 56.679,20.114 C56.679,17.819 57.671,15.586 59.346,13.912 C60.71,12.609 63.068,11.058 66.913,11.058 C71.193,11.058 74.729,13.043 76.279,16.331 C76.775,17.323 76.341,18.502 75.349,18.936 C74.356,19.432 73.178,18.998 72.682,18.005 C72,16.579 70.139,14.966 66.913,14.966 C62.323,14.966 60.649,18.129 60.649,20.114 C60.649,23.153 62.633,23.96 67.471,25.138 C71.814,26.255 77.83,27.743 77.83,34.877 C77.83,37.296 76.775,39.715 74.977,41.514 C73.55,42.878 71.007,44.553 66.913,44.553" id="Fill-1" fill="#FFFFFE"></path>
        <path d="M110.886,27.806 C110.886,20.486 105.738,14.966 98.977,14.966 C92.154,14.966 87.068,20.486 87.068,27.806 C87.068,35.063 92.154,40.583 98.977,40.583 C105.738,40.583 110.886,35.063 110.886,27.806 Z M114.794,27.806 C114.794,37.357 107.971,44.553 98.977,44.553 C94.139,44.553 89.921,42.506 87.068,39.095 L87.068,59.625 C87.068,60.742 86.199,61.61 85.083,61.61 C84.028,61.61 83.098,60.742 83.098,59.625 L83.098,12.981 C83.098,11.927 84.028,11.058 85.083,11.058 C86.199,11.058 87.068,11.927 87.068,12.981 L87.068,16.455 C89.921,13.105 94.139,11.058 98.977,11.058 C107.971,11.058 114.794,18.253 114.794,27.806 Z" id="Fill-2" fill="#FFFFFE"></path>
        <path d="M122.544,44.553 C121.489,44.553 120.559,43.685 120.559,42.567 L120.559,12.981 C120.559,11.927 121.489,11.058 122.544,11.058 C123.66,11.058 124.528,11.927 124.528,12.981 L124.528,42.567 C124.528,43.685 123.66,44.553 122.544,44.553 Z M122.544,3.677 C123.784,3.677 124.715,4.669 124.715,5.786 C124.715,6.964 123.784,7.895 122.544,7.895 C121.365,7.895 120.373,6.964 120.373,5.786 C120.373,4.669 121.365,3.677 122.544,3.677 Z" id="Fill-3" fill="#FFFFFE"></path>
        <path d="M145.802,12.981 C145.802,14.098 144.934,14.966 143.817,14.966 C138.358,14.966 134.203,19.432 134.203,25.324 L134.203,25.634 C134.203,25.696 134.203,25.759 134.203,25.821 L134.203,42.567 C134.203,43.685 133.335,44.553 132.218,44.553 C131.164,44.553 130.295,43.685 130.295,42.567 L130.295,12.981 C130.295,11.927 131.164,11.058 132.218,11.058 C133.335,11.058 134.203,11.927 134.203,12.981 L134.203,15.028 C136.622,12.547 139.972,11.058 143.817,11.058 C144.934,11.058 145.802,11.927 145.802,12.981" id="Fill-4" fill="#FFFFFE"></path>
        <path d="M151.073,25.821 L173.713,25.821 C172.969,19.37 168.626,14.966 162.548,14.966 C156.469,14.966 151.879,19.432 151.073,25.821 Z M162.858,44.553 C153.802,44.553 147.041,37.357 147.041,27.806 C147.041,23.277 148.529,19.122 151.259,16.021 C154.112,12.795 158.144,11.058 162.548,11.058 C171.418,11.058 177.807,18.067 177.807,27.806 C177.807,28.86 176.939,29.79 175.821,29.79 L151.073,29.79 C151.941,36.055 156.717,40.583 162.858,40.583 C167.014,40.583 170.673,38.599 172.782,35.001 C173.402,34.07 174.581,33.822 175.512,34.38 C176.441,34.939 176.752,36.179 176.193,37.109 C173.278,41.823 168.441,44.553 162.858,44.553 Z" id="Fill-5" fill="#FFFFFE"></path>
        <path d="M210.429,25.324 L210.429,42.567 C210.429,43.685 209.561,44.553 208.506,44.553 C207.39,44.553 206.522,43.685 206.522,42.567 L206.522,25.324 C206.522,19.37 202.613,14.966 197.217,14.966 C191.635,14.966 187.293,19.556 187.293,25.324 L187.293,25.634 C187.293,25.696 187.293,25.759 187.293,25.821 L187.293,42.567 C187.293,43.685 186.425,44.553 185.308,44.553 C184.254,44.553 183.385,43.685 183.385,42.567 L183.385,12.981 C183.385,11.927 184.254,11.058 185.308,11.058 C186.425,11.058 187.293,11.927 187.293,12.981 L187.293,15.214 C189.836,12.609 193.31,11.058 197.217,11.058 C201.001,11.058 204.475,12.547 206.894,15.338 C209.189,17.943 210.429,21.479 210.429,25.324" id="Fill-6" fill="#FFFFFE"></path>
        <path d="M233.312,38.971 C234.18,39.652 234.242,40.894 233.56,41.762 C232.009,43.561 229.776,44.553 227.481,44.553 C223.015,44.553 219.417,40.955 219.417,36.551 L219.417,14.966 L217.618,14.966 C216.565,14.966 215.695,14.098 215.695,12.981 C215.695,11.927 216.565,11.058 217.618,11.058 L219.417,11.058 L219.417,4.731 C219.417,3.615 220.348,2.747 221.402,2.747 C222.519,2.747 223.387,3.615 223.387,4.731 L223.387,11.058 L230.397,11.058 C231.513,11.058 232.381,11.927 232.381,12.981 C232.381,14.098 231.513,14.966 230.397,14.966 L223.387,14.966 L223.387,36.551 C223.387,38.784 225.248,40.583 227.481,40.583 C228.659,40.583 229.776,40.087 230.521,39.156 C231.265,38.35 232.505,38.226 233.312,38.971" id="Fill-7" fill="#FFFFFE"></path>
        <path d="M25.3,47.512 C15.148,47.512 6.638,40.424 4.408,30.942 L9.721,30.942 L1.425,17.9 L1.261,18.158 C0.506,20.457 0.084,22.903 0.024,25.438 L0.015,25.438 C0.01,25.636 0,25.833 0,26.032 C0,26.456 0.011,26.877 0.032,27.296 C0.05,27.656 0.079,28.013 0.112,28.369 C0.117,28.421 0.119,28.474 0.124,28.526 C1.381,41.311 12.191,51.332 25.3,51.332 C34.664,51.332 42.85,46.214 47.225,38.633 L44.854,34.905 C41.469,42.333 33.981,47.512 25.3,47.512" id="Fill-8" fill="#FFFFFE"></path>
        <path d="M50.6,26.032 C50.6,25.294 50.561,24.564 50.499,23.842 C50.496,23.805 50.494,23.768 50.491,23.732 C49.324,10.855 38.475,0.732 25.3,0.732 C15.809,0.732 7.526,5.988 3.197,13.74 L5.591,17.503 C8.898,9.89 16.485,4.552 25.3,4.552 C35.61,4.552 44.241,11.857 46.305,21.561 L40.794,21.561 L49.09,34.603 L49.117,34.562 C49.886,32.418 50.361,30.139 50.524,27.774 L50.533,27.774 C50.573,27.198 50.6,26.618 50.6,26.032" id="Fill-9" fill="#FFFFFE"></path>
        <path d="M239.636,11.77 C239.636,11.891 239.537,11.989 239.409,11.989 L237.944,11.989 L237.944,16.316 C237.944,16.443 237.845,16.542 237.725,16.542 C237.597,16.542 237.498,16.443 237.498,16.316 L237.498,11.989 L236.032,11.989 C235.905,11.989 235.806,11.891 235.806,11.77 C235.806,11.643 235.905,11.543 236.032,11.543 L239.409,11.543 C239.537,11.543 239.636,11.643 239.636,11.77" id="Fill-30" fill="#FFFFFE"></path>
        <path d="M244.38,16.542 C244.253,16.542 244.153,16.443 244.153,16.316 L244.153,12.506 L242.518,14.935 C242.476,14.998 242.404,15.034 242.334,15.034 C242.256,15.034 242.185,14.998 242.143,14.935 L240.514,12.506 L240.514,16.316 C240.514,16.443 240.415,16.542 240.288,16.542 C240.16,16.542 240.061,16.443 240.061,16.316 L240.061,11.77 C240.061,11.671 240.125,11.579 240.224,11.551 C240.316,11.523 240.422,11.558 240.472,11.643 L242.334,14.404 L244.189,11.643 C244.245,11.558 244.352,11.523 244.443,11.551 C244.536,11.579 244.607,11.671 244.607,11.77 L244.607,16.316 C244.607,16.443 244.5,16.542 244.38,16.542" id="Fill-31" fill="#FFFFFE"></path>
    </g>
</svg>