<svg xmlns="http://www.w3.org/2000/svg" viewBox="0 0 62.439362 63.999001" height="100%" width="100%">
    <path d="m 61.192192,48.803 c -1.873,-2.92 -8.165,-4.74 -14.398,-7.331 -6.233,-2.591 -7.708,-3.501 -7.708,-3.501 l -0.06,-5.976 c 0,0 2.334,-1.781 3.06,-7.419 1.46,0.421 2.992,-2.178 3.076,-3.549 0.084,-1.319 -0.2,-4.985 -1.981,-4.612 0.365,-2.755 0.626,-5.238 0.501,-6.549 -0.469,-4.797 -5.194,-9.866 -12.465,-9.866 -7.271,0 -11.995,5.069 -12.457,9.866 -0.128,1.315 0.132,3.798 0.497,6.549 -1.781,-0.369 -2.065,3.297 -1.981,4.612 0.084,1.368 1.612,3.97 3.076,3.549 0.726,5.623 3.06,7.419 3.06,7.419 l -0.06,5.976 c 0,0 -1.476,0.918 -7.708,3.501 C 9.4121917,44.063 3.1191917,45.9 1.2461917,48.803 -0.43380827,51.426 0.07119173,63.999 0.07119173,63.999 H 62.371192 c -0.004,0 0.501,-12.573 -1.179,-15.196 z"/>
</svg>
